<svg width="32" height="32" viewBox="0 0 32 32" fill="none" xmlns="http://www.w3.org/2000/svg">
<g clip-path="url(#clip0_689_52373)">
<path d="M27 16C27 9.92422 22.0758 5 16 5C9.92422 5 5 9.92422 5 16C5 21.4914 9.02187 26.0418 14.2812 26.8668V19.1797H11.4883V16H14.2812V13.5766C14.2812 10.8201 15.9227 9.29688 18.4363 9.29688C19.6395 9.29688 20.8984 9.51172 20.8984 9.51172V12.2188H19.5105C18.1441 12.2188 17.7188 13.0674 17.7188 13.9375V16H20.7695L20.2818 19.1797H17.7188V26.8668C22.9781 26.0418 27 21.4914 27 16Z" fill="#1877F2"/>
</g>
<circle cx="16" cy="16" r="15.75" stroke="#18191F" stroke-opacity="0.2" stroke-width="0.5"/>
<defs>
<clipPath id="clip0_689_52373">
<rect width="22" height="22" fill="white" transform="translate(5 5)"/>
</clipPath>
</defs>
</svg>
