<svg width="47" height="32" viewBox="0 0 47 32" fill="none" xmlns="http://www.w3.org/2000/svg">
<rect x="1.28125" y="0.5" width="45" height="31" rx="5.5" fill="white"/>
<path fill-rule="evenodd" clip-rule="evenodd" d="M15.1153 21.1451H12.369L10.3096 13.0573C10.2118 12.6852 10.0043 12.3563 9.69899 12.2013C8.93709 11.8118 8.09753 11.5017 7.18164 11.3454V11.034H11.6057C12.2163 11.034 12.6743 11.5017 12.7506 12.045L13.8191 17.879L16.5641 11.034H19.2341L15.1153 21.1451ZM20.7606 21.1451H18.1669L20.3027 11.034H22.8963L20.7606 21.1451ZM26.2519 13.8351C26.3282 13.2905 26.7862 12.9791 27.3204 12.9791C28.16 12.9009 29.0746 13.0573 29.8378 13.4455L30.2957 11.2685C29.5325 10.9571 28.6929 10.8008 27.931 10.8008C25.4137 10.8008 23.5819 12.2013 23.5819 14.1451C23.5819 15.6238 24.8794 16.4003 25.7953 16.868C26.7862 17.3344 27.1678 17.6458 27.0915 18.1122C27.0915 18.8118 26.3282 19.1232 25.5663 19.1232C24.6504 19.1232 23.7346 18.89 22.8963 18.5004L22.4384 20.6787C23.3543 21.0669 24.3451 21.2233 25.261 21.2233C28.0837 21.3001 29.8378 19.9009 29.8378 17.8008C29.8378 15.1561 26.2519 15.0011 26.2519 13.8351ZM38.915 21.1451L36.8556 11.034H34.6435C34.1856 11.034 33.7276 11.3454 33.575 11.8118L29.7615 21.1451H32.4315L32.9644 19.6677H36.245L36.5503 21.1451H38.915ZM35.0251 13.7569L35.787 17.5676H33.6513L35.0251 13.7569Z" fill="#172B85"/>
<rect x="1.28125" y="0.5" width="45" height="31" rx="5.5" stroke="#F2F4F7"/>
</svg>
