<svg width="32" height="32" viewBox="0 0 32 32" fill="none" xmlns="http://www.w3.org/2000/svg">
<circle cx="16" cy="16" r="15.75" stroke="#18191F" stroke-opacity="0.2" stroke-width="0.5"/>
<g clip-path="url(#clip0_689_52383)">
<path d="M4.10036 15.8919C4.09977 17.9876 4.65164 20.0339 5.701 21.8375L4 28L10.3558 26.3464C12.1137 27.296 14.0834 27.7936 16.0849 27.7937H16.0902C22.6977 27.7937 28.0763 22.4587 28.0792 15.9012C28.0804 12.7237 26.8344 9.73575 24.5707 7.48778C22.3073 5.24 19.297 4.00145 16.0897 4C9.48144 4 4.10309 9.33473 4.10036 15.8919Z" fill="url(#paint0_linear_689_52383)"/>
<path d="M2.11703 15.8281C2.11627 18.2653 2.75797 20.6445 3.97794 22.7417L2 29.9074L9.39058 27.9846C11.4269 29.0863 13.7196 29.6671 16.0526 29.668H16.0586C23.742 29.668 29.9967 23.4637 30 15.8392C30.0013 12.144 28.5523 8.66932 25.9203 6.05544C23.288 3.44189 19.788 2.00152 16.0586 2C8.37394 2 2.1202 8.20341 2.11714 15.8281H2.11703ZM6.51828 22.3805L6.24233 21.9459C5.0823 20.1157 4.47002 18.0007 4.47089 15.829C4.47341 9.49152 9.67134 4.3355 16.063 4.3355C19.1583 4.33681 22.0672 5.53408 24.2552 7.70636C26.443 9.87885 27.6469 12.7668 27.6461 15.8383C27.6433 22.1757 22.4452 27.3324 16.0586 27.3324H16.054C13.9745 27.3313 11.935 26.7772 10.1563 25.73L9.73303 25.4809L5.34731 26.6219L6.51828 22.3804V22.3805Z" fill="url(#paint1_linear_689_52383)"/>
<path d="M12.5741 10.0467C12.3132 9.47115 12.0385 9.45954 11.7904 9.44945C11.5871 9.44077 11.3548 9.44142 11.1227 9.44142C10.8904 9.44142 10.513 9.52813 10.1939 9.87379C9.87455 10.2198 8.97461 11.0559 8.97461 12.7564C8.97461 14.457 10.2229 16.1004 10.3969 16.3313C10.5712 16.5617 12.8068 20.163 16.3475 21.5485C19.2901 22.6999 19.8889 22.4709 20.5276 22.4131C21.1663 22.3556 22.5886 21.5772 22.8788 20.7701C23.1692 19.9631 23.1692 19.2714 23.0821 19.1268C22.9951 18.9828 22.7627 18.8963 22.4144 18.7235C22.0659 18.5506 20.3533 17.7144 20.0341 17.5991C19.7147 17.4838 19.4825 17.4263 19.2502 17.7724C19.0179 18.1179 18.3508 18.8963 18.1475 19.1268C17.9443 19.3579 17.741 19.3866 17.3928 19.2137C17.0442 19.0403 15.9223 18.6758 14.5913 17.4984C13.5558 16.5822 12.8567 15.4508 12.6534 15.1047C12.4502 14.7591 12.6317 14.5718 12.8063 14.3996C12.9629 14.2447 13.1548 13.996 13.3292 13.7942C13.5028 13.5924 13.5608 13.4483 13.677 13.2178C13.7932 12.9871 13.735 12.7852 13.6481 12.6124C13.5608 12.4395 12.8839 10.7302 12.5741 10.0468" fill="white"/>
</g>
<defs>
<linearGradient id="paint0_linear_689_52383" x1="16.0396" y1="28" x2="16.0396" y2="4" gradientUnits="userSpaceOnUse">
<stop stop-color="#1FAF38"/>
<stop offset="1" stop-color="#60D669"/>
</linearGradient>
<linearGradient id="paint1_linear_689_52383" x1="16" y1="29.9074" x2="16" y2="2" gradientUnits="userSpaceOnUse">
<stop stop-color="#F9F9F9"/>
<stop offset="1" stop-color="white"/>
</linearGradient>
<clipPath id="clip0_689_52383">
<rect width="28" height="28" fill="white" transform="translate(2 2)"/>
</clipPath>
</defs>
</svg>
